<?xml version="1.0" encoding="utf-8"?>
<!-- Generator: Adobe Illustrator 20.1.0, SVG Export Plug-In . SVG Version: 6.00 Build 0)  -->
<svg version="1.1" id="Layer_1" xmlns="http://www.w3.org/2000/svg" xmlns:xlink="http://www.w3.org/1999/xlink" x="0px" y="0px"
	 viewBox="0 0 108 108" style="enable-background:new 0 0 108 108;" xml:space="preserve">
<style type="text/css">
	.st0{fill:#EBC21F;}
	.st1{fill:#FDFAE1;}
</style>
<g>
	<circle class="st0" cx="54" cy="54" r="54"/>
	<g id="XMLID_1_">
		<g>
			<path class="st0" d="M89.1,38.4v31.2c0,4-3.3,7.4-7.4,7.4H26.2c-4.1,0-7.3-3.3-7.3-7.4V38.4c0-4,3.3-7.4,7.3-7.4h55.6
				C85.8,31.1,89.1,34.4,89.1,38.4z M85.8,69.6V38.4c0-0.5-0.2-0.9-0.3-1.2L66.9,52.5l18.8,18.3C85.8,70.4,85.8,70,85.8,69.6z
				 M83.5,73.2L64.4,54.4L54,63l-10.4-8.6L24.4,73.2c0.6,0.3,1.2,0.5,1.8,0.5h55.6C82.5,73.6,83.1,73.5,83.5,73.2z M54,58.8
				l29.4-24.2c-0.4-0.3-1-0.3-1.6-0.3H26.2c-0.6,0-1.2,0.1-1.6,0.3L54,58.8z M22.4,70.8l18.8-18.3L22.4,37.1
				c-0.1,0.4-0.1,0.9-0.1,1.2v31.2C22.2,70,22.2,70.4,22.4,70.8z"/>
			<path class="st1" d="M85.8,38.4v31.2c0,0.5-0.2,0.8-0.2,1L66.9,52.5l18.8-15.3C85.8,37.5,85.8,37.9,85.8,38.4z"/>
			<path class="st1" d="M64.4,54.4l19.2,18.8c-0.6,0.3-1.2,0.5-1.8,0.5H26.2c-0.6,0-1.2-0.1-1.8-0.5l19.2-18.8L54,63L64.4,54.4z"/>
			<path class="st1" d="M83.4,34.6L54,58.8L24.6,34.6c0.4-0.3,1.1-0.3,1.6-0.3h55.6C82.4,34.4,83,34.5,83.4,34.6z"/>
			<path class="st1" d="M41.1,52.5L22.4,70.8c-0.1-0.3-0.1-0.8-0.1-1V38.4c0-0.5,0.1-0.9,0.1-1.2L41.1,52.5z"/>
		</g>
	</g>
</g>
</svg>
