<?xml version="1.0" encoding="utf-8"?>
<!-- Generator: Adobe Illustrator 20.1.0, SVG Export Plug-In . SVG Version: 6.00 Build 0)  -->
<svg version="1.1" id="Layer_1" xmlns="http://www.w3.org/2000/svg" xmlns:xlink="http://www.w3.org/1999/xlink" x="0px" y="0px"
	 viewBox="0 0 108 108" style="enable-background:new 0 0 108 108;" xml:space="preserve">
<style type="text/css">
	.st0{fill:#EBC21F;}
	.st1{fill:#FDFAE1;}
</style>
<g>
	<g id="XMLID_2_">
		<g>
			<path class="st0" d="M54.2,0.2C83.9,0.2,108,24.3,108,54s-24.1,53.8-53.8,53.8S0.4,83.7,0.4,54C0.4,24.3,24.6,0.2,54.2,0.2z
				 M70.2,31.9V19.8c0,0-7.9,0-9.6,0c-10.3,0-14.9,4.5-14.9,13.3c0,7.6,0,9.3,0,9.3h-7.2v11.8h7.2v34.7h13.9V54h9.7l1-11.7H59.6
				c0,0,0-4.3,0-6.6c0-2.7,0.6-3.9,3.3-3.9C64.8,31.9,70.2,31.9,70.2,31.9z"/>
			<path class="st1" d="M70.2,19.8v12.1c0,0-5.4,0-7.5,0c-2.7,0-3.3,1-3.3,3.9c0,2.2,0,6.6,0,6.6h10.8l-1,11.7h-9.7v34.8H45.5V54.1
				h-7.2V42.3h7.2c0,0,0-1.6,0-9.3c0-8.7,4.6-13.3,14.9-13.3C62.3,19.8,70.2,19.8,70.2,19.8z"/>
		</g>
	</g>
</g>
</svg>
