<?xml version="1.0" encoding="utf-8"?>
<!-- Generator: Adobe Illustrator 20.1.0, SVG Export Plug-In . SVG Version: 6.00 Build 0)  -->
<svg version="1.1" id="Layer_1" xmlns="http://www.w3.org/2000/svg" xmlns:xlink="http://www.w3.org/1999/xlink" x="0px" y="0px"
	 viewBox="0 0 108 108" style="enable-background:new 0 0 108 108;" xml:space="preserve">
<style type="text/css">
	.st0{fill:#EBC21F;}
	.st1{fill:#FDFAE1;}
</style>
<g>
	<g id="XMLID_4_">
		<g>
			<path class="st0" d="M54,0c29.9,0,54,24.1,54,54s-24.1,54-54,54S0,83.9,0,54S24.1,0,54,0z M84,80.1c0,0,0-14,0-24.3
				s-5.9-15.3-14-15.3s-11.6,6.3-11.6,6.3v-5.1H47.1V80h11.4c0,0,0-14.2,0-20.1c0-5.4,2.6-8.5,7.2-8.5c4.3,0,6.4,3,6.4,8.5
				s0,20.1,0,20.1H84V80.1z M39.6,80.1V41.9H27.8v38.3H39.6z M40.6,29.7c0-3.9-3.1-7.1-7-7.1s-7.1,3.1-7.1,7.1s3.1,7.1,7.1,7.1
				S40.6,33.6,40.6,29.7z"/>
			<path class="st1" d="M84,55.8c0,10.2,0,24.3,0,24.3H72.1c0,0,0-14.6,0-20.1s-2.1-8.6-6.4-8.6c-4.8,0-7.2,3.2-7.2,8.6
				c0,5.9,0,20.1,0,20.1H47.1V41.9h11.4V47c0,0,3.4-6.3,11.5-6.3C78.1,40.6,84,45.6,84,55.8z"/>
			<rect x="27.8" y="41.9" class="st1" width="11.9" height="38.2"/>
			<ellipse class="st1" cx="33.6" cy="29.7" rx="7.1" ry="7.1"/>
		</g>
	</g>
</g>
</svg>
