<?xml version="1.0" encoding="utf-8"?>
<!-- Generator: Adobe Illustrator 20.1.0, SVG Export Plug-In . SVG Version: 6.00 Build 0)  -->
<svg version="1.1" id="Layer_1" xmlns="http://www.w3.org/2000/svg" xmlns:xlink="http://www.w3.org/1999/xlink" x="0px" y="0px"
	 viewBox="0 0 108 108" style="enable-background:new 0 0 108 108;" xml:space="preserve">
<style type="text/css">
	.st0{fill:#FDFAE1;}
	.st1{fill:#EBC21F;}
</style>
<g>
	<g id="XMLID_5_">
		<g>
			<path class="st0" d="M74.8,67.3v1.8h-3v-1.8c0-1.2,0.3-2.2,1.5-2.2C74.6,65.2,74.8,66.1,74.8,67.3z"/>
			<path class="st1" d="M78.4,72h-6.5v3.5c0,1.4,0.1,2.5,1.5,2.5c1.5,0,1.5-1.1,1.5-2.5v-1.4h3.6v1.5c0,3.6-1.5,5.7-5.1,5.7
				c-3.3,0-5-2.4-5-5.7v-8.2c0-3.2,2.1-5.4,5.3-5.4c3.3,0,5,2.1,5,5.4V72H78.4z M74.8,69.2v-1.8c0-1.2-0.3-2.2-1.5-2.2
				s-1.5,0.8-1.5,2.2v1.8H74.8z"/>
			<path class="st0" d="M64,40.7c0,0.7,0.1,1.4,0.8,1.4c0.7,0,1.7-0.8,2.1-1.5V25.9h3.6v19.4H67v-2.1c-1.5,1.8-3.2,2.4-4.2,2.4
				c-1.9,0-2.5-1.5-2.5-3.5V25.8h3.6v14.9H64z"/>
			<path class="st0" d="M62,67v9.6c0,0.6-0.1,1.1-0.3,1.4c-0.3,0.4-1.2,0.4-1.8,0.1c-0.3-0.1-0.6-0.3-0.7-0.6V65.9
				c0.3-0.3,0.4-0.4,0.7-0.6c0.6-0.3,1.4-0.3,1.8,0.3C62,65.9,62,66.3,62,67z"/>
			<path class="st1" d="M65.6,77c0,2.2-0.8,4-3.2,4c-1.2,0-2.2-0.4-3.3-1.7v1.4h-3.5V55.8h3.6v8c0.7-0.8,1.8-1.8,3-1.8
				c2.5,0,3.3,2.1,3.3,4.6V77H65.6z M62,76.6V67c0-0.6-0.1-1.1-0.3-1.4c-0.4-0.6-1.2-0.6-1.8-0.3c-0.3,0.1-0.4,0.3-0.7,0.6v11.5
				c0.3,0.3,0.6,0.4,0.7,0.6c0.6,0.3,1.4,0.3,1.8-0.1C62,77.4,62,77.1,62,76.6z"/>
			<path class="st1" d="M53.7,31.2v9c0,1.1-0.6,1.8-1.5,1.8c-1.1,0-1.5-0.7-1.5-1.8v-9c0-1.1,0.4-1.8,1.5-1.8
				C53.2,29.4,53.7,30.2,53.7,31.2z"/>
			<path class="st0" d="M52.1,42.1c1.1,0,1.5-0.7,1.5-1.8v-9c0-1.1-0.4-1.8-1.7-1.8c-1.1,0-1.5,0.7-1.5,1.8v9
				C50.5,41.1,51.2,42.1,52.1,42.1z M57.3,40.4c0,3.3-2.2,5.3-5.3,5.3c-3.5,0-5.3-1.8-5.3-5.3v-9.6c0-3.2,2.1-5.3,5.3-5.3
				c3,0,5.3,2.2,5.3,5.3V40.4z"/>
			<path class="st1" d="M62.8,45.5c1.1,0,2.6-0.6,4.2-2.4v2.1h3.6V25.8H67v14.7c-0.4,0.6-1.4,1.5-2.1,1.5c-0.7,0-0.8-0.6-0.8-1.4
				v-15h-3.6v16.1C60.4,44,61,45.5,62.8,45.5z M42.4,34.6L47,18.9h-4.2l-2.6,10.4l-2.5-10.4h-4l4.7,15.7v10.5h4V34.6z M75.5,49.7
				H33.1c-4.6,0-8.2,3.7-8.2,8.2v20.9c0,4.6,3.7,8.2,8.2,8.2h42.5c4.4,0,8.2-3.7,8.2-8.2V57.9C83.7,53.3,80.2,49.7,75.5,49.7z
				 M52.1,45.5c2.8,0,5.3-1.9,5.3-5.3v-9.4c0-3-2.2-5.3-5.3-5.3c-3.2,0-5.3,2.1-5.3,5.3v9.6C46.8,43.9,48.6,45.5,52.1,45.5z M54,0
				c29.8,0,54,24.2,54,54s-24.2,54-54,54S0,83.8,0,54S24.2,0,54,0z"/>
			<path class="st1" d="M49,78.8c-0.6,0.7-1.4,1.4-1.9,1.7c-1.8,1.1-4.3,1.1-4.3-2.6V62.3h3.5v14.1c0,0.7,0.1,1.2,0.8,1.2
				c0.6,0,1.7-0.8,1.9-1.4V62.3h3.5v18.6H49V78.8z"/>
			<path class="st0" d="M71.7,72h6.5v-4.6c0-3.3-1.7-5.4-5-5.4c-3.2,0-5.3,2.2-5.3,5.4v8.2c0,3.3,1.7,5.7,5,5.7
				c3.6,0,5.1-2.1,5.1-5.7v-1.5h-3.6v1.4c0,1.7-0.1,2.5-1.5,2.5c-1.4,0-1.5-1.2-1.5-2.5V72H71.7z M55.8,55.8v25.1h3.5v-1.4
				c0.8,1.2,1.9,1.7,3.3,1.7c2.2,0,3.2-1.8,3.2-4V66.8c0-2.5-0.7-4.6-3.3-4.6c-1.2,0-2.2,0.7-3,1.8v-8h-3.7V55.8z M42.6,59.4v-3.6
				H30.7v3.6h4v21.3h3.9V59.4H42.6z M52.5,62.3H49v14c-0.4,0.4-1.4,1.4-1.9,1.4c-0.7,0-0.8-0.4-0.8-1.2V62.3h-3.5v15.4
				c0,3.7,2.5,3.7,4.3,2.6c0.7-0.4,1.4-0.8,1.9-1.7v2.1h3.5V62.3z M83.7,57.9v20.9c0,4.6-3.7,8.2-8.2,8.2H33.1
				c-4.6,0-8.2-3.7-8.2-8.2V57.9c0-4.6,3.7-8.2,8.2-8.2h42.5C80.2,49.7,83.7,53.3,83.7,57.9z"/>
			<polygon class="st0" points="42.4,34.6 42.4,45.2 38.2,45.2 38.2,34.6 33.4,19 37.5,19 40.3,29.4 42.9,19 47,19 			"/>
			<polygon class="st1" points="38.6,59.4 38.6,80.9 34.9,80.9 34.9,59.4 30.9,59.4 30.9,55.8 42.6,55.8 42.6,59.4 			"/>
		</g>
	</g>
</g>
</svg>
